<svg id="Layer_1" data-name="Layer 1" xmlns="http://www.w3.org/2000/svg" viewBox="0 0 368.39 61.17"><defs><style>.cls-1{fill:#002642;}.cls-2{fill:#fff;}</style></defs><rect class="cls-1" y="17.59" width="4.54" height="25.99"/><path class="cls-1" d="M31.78,36.4,13.44,18.2a2.59,2.59,0,0,0-1.93-.93c-1.43,0-2.32,1-2.32,2.72V43.58h4.33v-19L31.78,42.94a2.92,2.92,0,0,0,2.08,1c1.32,0,2.25-1,2.25-2.71V17.38H31.78Z"/><path class="cls-1" d="M60,28.46H48.09a3,3,0,0,1-3.25-3.15,3,3,0,0,1,3.28-3.18H66.79V17.59H48.12c-5.18,0-8,3.11-8,7.29s3,7.4,7.93,7.4H60c2.44,0,3.79,1.15,3.79,3.36,0,2-1.35,3.4-3.79,3.4H40.51v4.54H60c5.44,0,8.08-3.25,8.08-7.61C68.07,30.93,65.25,28.46,60,28.46Z"/><rect class="cls-1" x="72.22" y="17.59" width="4.54" height="25.99"/><path class="cls-1" d="M92.78,32.28h11.73V39H93.39c-4.68,0-8.08-3.61-8.08-8.51s3.43-8.4,8.08-8.4h14.09V17.59H93.39c-7.26,0-12.62,5.08-12.62,12.73s5.36,13.26,12.62,13.26h15.69V28.46H92.78Z"/><polygon class="cls-1" points="134.19 28.35 121.1 28.35 121.1 32.39 134.19 32.39 134.19 43.69 138.73 43.69 138.73 17.59 134.19 17.59 134.19 28.35"/><rect class="cls-1" x="113.27" y="17.59" width="4.54" height="26.1"/><polygon class="cls-1" points="141.69 17.59 141.69 22.13 151.56 22.13 151.56 43.58 156.1 43.58 156.1 22.13 165.97 22.13 165.97 17.59 141.69 17.59"/><rect class="cls-1" x="171.72" width="196.67" height="61.17"/><path class="cls-2" d="M199.17,17.59h-6.33c-7.26,0-12.62,5.08-12.62,12.73s5.36,13.26,12.62,13.26h6.33c7.4,0,12.72-5.72,12.72-13.26S206.67,17.59,199.17,17.59Zm0,21.45h-6.33c-4.69,0-8.08-3.61-8.08-8.51s3.43-8.4,8.08-8.4h6.33c4.79,0,8.18,3.5,8.18,8.4S204,39,199.17,39Z"/><path class="cls-2" d="M243.68,27.06c0-5.79-3.51-9.47-9.44-9.47H215.58v26h4.5V22.13h14.16c3.11,0,5,1.65,5,5s-1.72,5.22-5,5.22H223.41v4h9.72l6.58,7.22h6.44l-7.83-7.9C241.68,34.39,243.68,31.35,243.68,27.06Z"/><rect class="cls-2" x="248.76" y="17.59" width="4.54" height="25.99"/><path class="cls-2" d="M269.32,32.28H281V39H269.92c-4.68,0-8.08-3.61-8.08-8.51s3.44-8.4,8.08-8.4H284V17.59H269.92c-7.25,0-12.62,5.08-12.62,12.73s5.37,13.26,12.62,13.26h15.7V28.46h-16.3Z"/><rect class="cls-2" x="290.05" y="17.59" width="4.54" height="25.99"/><path class="cls-2" d="M321.84,36.4,303.5,18.2a2.59,2.59,0,0,0-1.93-.93c-1.43,0-2.33,1-2.33,2.72V43.58h4.33v-19l18.27,18.38a2.88,2.88,0,0,0,2.07,1c1.32,0,2.25-1,2.25-2.71V17.38h-4.32Z"/><path class="cls-2" d="M350.05,28.46H338.14a3,3,0,0,1-3.25-3.15,3,3,0,0,1,3.29-3.18h18.66V17.59H338.18c-5.18,0-8,3.11-8,7.29s3,7.4,7.94,7.4h11.94c2.43,0,3.79,1.15,3.79,3.36,0,2-1.36,3.4-3.79,3.4H330.56v4.54h19.49c5.43,0,8.08-3.25,8.08-7.61C358.13,30.93,355.3,28.46,350.05,28.46Z"/></svg>